<?xml version="1.0" encoding="utf-8"?>
<!-- Generator: Adobe Illustrator 27.1.0, SVG Export Plug-In . SVG Version: 6.00 Build 0)  -->
<svg version="1.1" id="Capa_1" xmlns="http://www.w3.org/2000/svg" xmlns:xlink="http://www.w3.org/1999/xlink" x="0px" y="0px"
	 viewBox="0 0 178.46 145.49" style="enable-background:new 0 0 178.46 145.49;" xml:space="preserve">
<g>
	<path d="M83.73,2.67c33.98-0.33,68.51,20.13,82.51,51.59c7.34,16.48,11,35.62,7.79,53.58c-0.74,4.12-1.63,8.16-2.79,12.18
		c-0.57,1.95-0.85,4.3-2.13,5.94c-1.21,1.56-3.25,2.7-4.94,3.68c-7.69,4.48-17.43,5.75-25.66,2.08
		c-7.59-3.38-13.61-8.05-19.05-14.23c-1.51-1.72-5.31-6.32-7.55-4.48c-0.76,0.62-1.36,3.81-2.04,4.89c-1.06,1.66-2.6,2.88-3.75,4.45
		c-9.74,13.33-24.99,19.98-41.4,20.46C28.11,143.88,1.1,109.41,3.4,74.41c1.29-19.65,9.44-37.63,24-51.05
		C42.28,9.64,63.65,2.36,83.73,2.67z M86.42,52.91c2.64,0.17,4.74,1.27,6.78,2.49c2.48,1.48,5.23,2.85,7.63,4.49
		c2.03,1.39,2.95,3.12,4.38,5.02c1.38,1.83,3.31,3.1,4.58,5.04c1.27,1.92,1.54,4.04,2.39,6.12c0.9,2.22,2.26,3.99,2.76,6.42
		c0.57,2.72,0.65,5.52,1.2,8.26c0.98,4.93-0.45,10.93-1.5,15.87c-0.66,3.11,0.81,2.57,3.15,4.28c1.53,1.12,2.8,2.55,4.04,3.96
		c3.26,3.7,6.58,7.09,10.73,9.81c8.27,5.42,17.26,7.43,26.58,3.31c4.36-1.93,7.3-3.44,8.46-8.22c1.14-4.74,2.52-9.41,3.2-14.24
		c1.53-10.86,0.92-22.49-1.79-33.13c-4.96-19.48-16.45-36.74-32.52-48.8c-8.32-6.24-17.75-11.13-27.78-13.96
		c-9.46-2.67-20.9-5.11-30.72-3.1C96.73,15.22,101.26,38.18,86.42,52.91z M55.85,11.73c9.12,1.72,16.08,6.45,20.06,14.85
		c3.96,8.37,3.38,16.79-1.07,25.27c2.98-0.86,6.07,0.68,8.55-1.1c2.55-1.83,4.6-4.82,5.98-7.61c3.29-6.61,3.36-14.2,0.37-20.93
		c-2.75-6.18-8.49-11.02-14.94-12.95c-3.45-1.03-7.41-1.19-10.96-0.66C62.02,8.86,56.69,9.81,55.85,11.73z M64.3,53.63
		c1.17-0.9,2.45-1,3.6-0.99c5.39,0.01,6.91-10.08,6.99-13.93c0.13-6.39-2.17-12.44-6.72-16.98c-4.93-4.92-11.42-7.07-18.33-6.56
		c-3.07,0.22-6.03,1.08-8.77,2.51c-1.6,0.84-6,3.07-6.13,5.21C52.97,20.68,67.01,35.88,64.3,53.63z M54.74,58.19
		c1.49-0.62,2.71-1.18,3.96-1.62c2.71-0.96,2.27-7.11,2.21-9.35c-0.09-2.99-0.7-5.92-2.02-8.62c-2.4-4.89-6.66-8.74-11.72-10.71
		c-5.96-2.32-12.59-2.07-18.31,0.84c-2.46,1.25-4.64,2.98-6.43,5.08c-1.08,1.27-3.86,4.34-3.48,6.18
		C34.32,32.9,51.73,41.42,54.74,58.19z M9.32,60.96c0.11,0.04,0.23,0.08,0.34,0.12c7.69-6.83,18.12-9.63,27.66-4.61
		c2.12,1.11,4.13,2.55,5.85,4.22c1.02,0.99,3.04,5.13,4.14,5.39c0.69,0.17,3.17-1.92,3.6-2.58c1.2-1.83,0.41-5.37-0.16-7.32
		C47.8,45.95,37.97,40.15,27.63,41.14C17.69,42.08,9.87,51.1,9.32,60.96z M7.68,83.68c1.16-0.43,1.16-1.52,1.66-2.25
		c5.57-7.96,15.12-11.9,24.7-9.5c2.34,0.58,4.48,1.68,6.49,2.98c1.25,0.81,2.11,2.01,3.37,1.13c1.12-0.79,1.47-4.47,1.29-5.68
		c-0.3-2.05-1.79-4.1-3.06-5.65c-5.87-7.13-16.37-9.34-24.61-5.08C8.72,64.17,5.11,74.45,7.68,83.68z M14.23,106.02
		c0.4-0.33,0.4-0.81,0.45-1.26c1.04-9.32,10.3-16.76,19.31-17.27c2.43-0.14,4.7,0.3,7.1,0.54c1.97,0.19,2.85,0.37,2.43-2.16
		c-0.68-4.12-2.4-6.64-6.07-8.68C19.61,67.31-0.25,90.86,14.23,106.02z M28.14,124.89c0.26-0.28,0.11-0.5,0.05-0.71
		c-2.5-8.94,2.06-18.66,10.11-23.02c2-1.08,4.02-1.68,6.26-2.03c2.19-0.34,2.8-0.14,1.78-2.1c-1.86-3.61-3.95-5.32-8.09-6.03
		c-8.45-1.46-17.14,4.2-19.62,12.31C15.96,112.06,20.08,120.86,28.14,124.89z M43.87,135.16c-2.36-3.21-3.58-6.48-4.13-10.01
		c-1.22-7.81,3.39-14.63,9.58-18.77c1.1-0.74,1.91-0.88,1.41-2.21c-0.3-0.81-1.99-1.71-2.78-1.9c-2.88-0.66-6.77,1.17-9.11,2.72
		C27.09,112.77,29.58,132.05,43.87,135.16z M67.77,110.76c-3.2,0.09-8.32,6.59-7.21,14.09c1.1,7.4,8.34,14.18,18.05,12.29
		C67.55,132.8,62.49,121.8,67.77,110.76z M56.67,107.73c-4.23-1.44-11.31,5.22-13.03,12c-2.07,8.13,3.6,16.76,11.43,18.58
		C45.47,129.4,46.72,115.69,56.67,107.73z M66.46,139.01c-1.04-1.21-2.51-1.65-3.49-2.66c-4.58-4.69-6.97-10.89-5.56-17.46
		c0.28-1.29,0.68-2.57,1.2-3.79c0.31-0.74,2.33-3.4,2.21-4.04c-0.43-2.33-4.4,1.55-4.96,2.15c-4.05,4.4-5.2,10.97-2.89,16.44
		C54.96,134.34,60.85,139.91,66.46,139.01z M73.02,111.13c-2.26,0.8-3.6,3.62-3.87,7.11c-0.79,10.11,9.73,19.99,19.71,14.56
		C77.97,130.44,72.09,122.2,73.02,111.13z M97.94,125.74c-11.66,0.31-18.07-5.33-19.42-16.8c-2.35-0.11-2.15,6.92-1.96,8.38
		c0.39,2.86,1.74,5.45,3.79,7.46c2.54,2.49,6.03,4.15,9.6,4.24C92.13,129.07,97.33,128.43,97.94,125.74z M110.71,106.31
		c-0.49,0.26-1.02,0.45-1.45,0.78c-4.73,3.54-12.45,3.35-17.31,0.14c-0.88-0.58-4.15-4.54-4.86-4.37c-1.92,0.45,0.22,4.18,0.59,4.86
		C92.87,117.24,106.81,116.44,110.71,106.31z M112.93,94.49c-7.28,8.05-15.12,8.44-23.73,2.49c-1.24,5.74,8.29,9.8,12.72,9.21
		C108.18,105.37,112.07,100.53,112.93,94.49z M111.35,82.81c-1.91,3.99-4.37,6.91-8.2,8.56c-3.9,1.68-7.74,1.63-11.59,0.09
		c-2.09,5.5,9.24,6.55,12.54,5.34C109.83,94.72,112.78,88.63,111.35,82.81z M103.19,117.64c-2.27,0.51-4.49,0.78-6.77,0.31
		c-4.56-0.94-8.55-3.4-11.14-7.32c-0.55-0.83-1.62-4.6-2.91-3.75c-1.09,0.72-0.09,4.72,0.23,5.77c1.38,4.46,5.15,8.2,9.71,9.28
		C96.44,122.9,101.88,122.39,103.19,117.64z M106.76,72.55c-0.98,4.08-2.54,7.7-5.95,10.16c-3.37,2.43-7.19,3.13-11.49,2.68
		c3.73,4.83,10.72,4.75,16.2,0.01C108.57,82.76,109.81,75.75,106.76,72.55z M99.33,63.28c-0.2,0.51-0.06,0.99,0,1.48
		c0.55,4.69-1.19,9.44-4.83,12.51c-0.95,0.8-4.95,2-5.26,2.77c-0.77,1.88,2.4,1.94,3.65,1.89C101.92,81.6,106.91,68.99,99.33,63.28z
		 M84.73,76.37c2.8,0.79,5.15,0.03,7.24-1.65c4.95-3.98,5.83-15.98-2.4-17.06C92.49,65.01,91.53,71.37,84.73,76.37z M78.01,54.97
		c2.24,1.93,3.96,5.44,4.37,8.36c0.28,2.01,0.01,4.04-0.63,5.96c-0.25,0.75-1.74,2.93-1.42,3.58c1.3,2.62,5.94-3.12,6.55-4.45
		C89.77,62.13,84.71,55.03,78.01,54.97z M66.78,56.64c0.19,0.6,0.65,0.73,1.08,0.89c3.72,1.43,6.28,6.17,6.52,9.99
		c0.07,1.03-0.82,3.43,0.32,3.97c1.56,0.74,2.78-1.31,3.37-2.41c1.8-3.36,1.19-7.38-1.37-10.15C74.59,56.67,69.59,54.14,66.78,56.64
		z M56.67,61.89c0.33,0.52,0.79,0.37,1.19,0.44c4.29,0.8,8.83,3.81,9.7,8.75c0.19,1.08,1.12,1.4,2,0.74
		c0.47-0.35,0.7-0.85,0.84-1.41c1.47-5.61-3.01-11.53-9.39-10.69C59.32,59.94,57.62,60.21,56.67,61.89z M49.09,70.72
		c0.51,0.39,0.91,0.24,1.31,0.11c3.04-0.98,6.63-0.36,9.29,1.35c1.52,0.98,4.68,6.26,4.9,1.78C64.99,65.89,51.17,62.46,49.09,70.72z
		 M47.99,92.99c0.67-0.34,0.81-0.98,1.15-1.46c2.13-3.04,4.51-3.68,7.88-4.58c3.61-0.96,1.52-3.36-1.26-4.13
		c-2.99-0.84-5.93,0.21-7.74,2.73C46.67,87.44,45.62,91.36,47.99,92.99z M46.18,81.42c0.86,0.06,1.42-0.45,1.98-0.79
		c1.52-0.96,3.23-1.63,5.03-1.74c1.81-0.11,3.62,1.24,5.18,1.16c3.43-0.17,1.32-3.65-0.63-4.87C53.18,72.31,45.28,75.14,46.18,81.42
		z M57.54,90.53c-2.01-0.16-3.32,0.65-4.55,1.84c-1.77,1.71-2.3,4.67-1.45,6.94c0.24,0.64,1.22,2.7,2.04,2.79
		c1.49,0.16,0.93-0.64,1.21-1.74c0.65-2.61,1.28-4.7,3.47-6.48C60.05,92.43,60.64,90.53,57.54,90.53z M62.6,95.57
		c-0.12,0.04-0.35,0.1-0.55,0.2c-2.22,1.14-3.81,3.02-3.81,5.6c0,2.16,1.6,5.42,4.11,5.64c3.16,0.27,0.55-3.63,0.87-5.93
		C63.41,99.74,65.66,95.63,62.6,95.57z M72.3,107.64c0.39-0.08,0.91-0.15,1.39-0.31c3.06-1.01-1.28-3.93-1.91-5.69
		c-0.68-1.91,0.13-5.04-2.88-3.63C63.59,100.51,68.17,107.19,72.3,107.64z M84.05,99.86c-0.77-0.14-1.46-0.24-2.13-0.4
		c-1.41-0.33-2.74-0.95-3.83-1.91c-0.3-0.26-1.44-2.1-1.67-2.14c-1.86-0.36-2.09,3.03-1.66,4.45
		C76.1,104.3,83.05,104.81,84.05,99.86z M87.82,91.62c0.13-3.4-2.51-1.07-4.39-0.86c-2.09,0.23-4.96-1.35-4.33,1.91
		C80.05,97.59,87.78,96.54,87.82,91.62z M86.05,83.39c0.32-1.41-0.51-2.26-1.63-3c-1.77-1.18-2.14,1.36-3,2.43
		c-0.77,0.96-2.72,1.73-2.34,3.13C80.03,89.49,86.56,86.73,86.05,83.39z M76.33,75.24c-0.31,0.41-0.2,0.88-0.09,1.31
		c0.41,1.5-0.89,7.07,2.15,4.31C80.63,78.83,79.02,75.48,76.33,75.24z M71.63,81.3c0.5-0.66,0.88-1.02,1.07-1.46
		c1.13-2.68-3.29-5.94-4.23-3.7C68.08,77.06,71.05,80.13,71.63,81.3z M67.86,82.66c-0.02-1.51-0.93-2.74-2.09-2.96
		c-1.43-0.27-3.71,1.42-2.55,2.62C63.56,82.67,67.85,83.48,67.86,82.66z M66.41,87.55c-0.91-1.58-1.85-2.02-2.96-1.49
		c-0.9,0.44-1.94,2.99-0.67,3.6C63.99,90.24,65.34,87.98,66.41,87.55z M69.57,92.78c0-0.88-0.74-1.72-1.64-1.69
		C63.07,91.26,69.69,98.03,69.57,92.78z"/>
</g>
</svg>
